<?xml version="1.0" standalone="no"?>
<!DOCTYPE svg PUBLIC "-//W3C//DTD SVG 20010904//EN"
 "http://www.w3.org/TR/2001/REC-SVG-20010904/DTD/svg10.dtd">
<svg version="1.0" xmlns="http://www.w3.org/2000/svg"
 width="700.000000pt" height="700.000000pt" viewBox="0 0 700.000000 700.000000"
 preserveAspectRatio="xMidYMid meet">
<metadata>
Created by potrace 1.11, written by Peter Selinger 2001-2013
</metadata>
<g transform="translate(0.000000,700.000000) scale(0.100000,-0.100000)"
fill="#000000" stroke="none">
<path d="M2528 6570 c-156 -19 -280 -81 -398 -199 -69 -69 -94 -103 -127 -171
-72 -147 -74 -174 -71 -680 l3 -445 31 -86 c81 -226 265 -391 499 -448 l80
-19 -346 -1 c-391 -1 -436 -7 -572 -78 -99 -51 -229 -181 -280 -280 -74 -142
-77 -170 -77 -663 0 -402 2 -443 20 -514 31 -122 82 -209 180 -307 100 -101
201 -157 333 -186 l82 -18 -425 -5 -425 -5 -73 -27 c-204 -74 -354 -224 -426
-427 l-31 -86 0 -475 0 -475 31 -86 c79 -221 257 -385 484 -446 61 -17 202
-18 2335 -18 2175 0 2273 1 2335 18 248 71 424 245 496 492 15 51 18 118 21
459 3 248 1 428 -6 477 -32 235 -164 426 -364 524 -149 73 -164 75 -562 76
l-350 1 80 19 c243 59 429 229 507 464 23 69 23 75 23 545 0 470 0 476 -23
545 -71 212 -248 389 -449 448 l-53 16 0 -334 c0 -204 -4 -354 -11 -385 -15
-70 -62 -128 -134 -165 -57 -29 -62 -30 -204 -30 l-145 0 -54 120 c-29 66 -60
134 -67 152 l-13 32 118 -2 c102 -2 122 0 137 16 17 16 18 47 21 392 l3 375
-861 0 -860 0 0 -525 0 -525 -175 0 -175 0 0 348 c0 192 3 484 7 650 l6 302
1199 0 1198 0 0 -200 0 -200 463 0 c523 0 548 3 690 77 98 51 229 182 280 280
74 141 77 170 77 663 0 402 -2 443 -20 514 -61 240 -239 417 -495 493 -56 17
-161 18 -1730 19 -918 1 -1700 -2 -1737 -6z m1346 -306 c202 -18 219 -26 163
-75 -33 -29 -37 -38 -37 -81 l0 -48 555 0 555 0 0 -135 0 -135 -1305 0 -1305
0 0 135 0 135 560 0 560 0 0 110 0 110 41 0 c23 0 119 -7 213 -16z m666 -904
l0 -310 -740 0 -740 0 0 310 0 310 740 0 740 0 0 -310z m-130 -1110 l0 -300
-437 -2 -438 -3 -3 -57 -3 -58 -154 0 -155 0 0 360 0 360 595 0 595 0 0 -300z
m-1222 -899 c56 -5 109 -14 116 -20 19 -16 10 -44 -25 -77 -16 -15 -29 -38
-29 -51 l0 -23 560 0 560 0 0 -135 0 -135 -560 0 -560 0 0 -75 0 -75 435 0
434 0 3 -142 c2 -79 2 -302 0 -495 l-2 -353 -150 0 -150 0 0 -70 0 -70 290 0
290 0 0 -140 0 -140 -287 -2 -288 -3 -5 -245 c-5 -235 -6 -246 -28 -277 -51
-72 -137 -99 -432 -138 l-45 -6 -72 173 -71 173 138 5 c95 3 143 9 152 18 9 9
14 56 16 157 l3 145 -430 0 c-237 0 -431 -2 -431 -4 0 -1 50 -52 111 -112 123
-122 197 -211 183 -223 -71 -60 -262 -219 -270 -224 -7 -4 -40 30 -80 81 -38
48 -113 132 -167 186 l-99 99 98 98 99 99 -373 0 -372 0 0 140 0 140 865 0
865 0 0 70 0 70 -710 0 -710 0 0 495 0 495 415 0 415 0 0 75 0 75 -545 0 -545
0 0 135 0 135 545 0 545 0 0 90 0 90 98 0 c53 -1 143 -5 200 -9z"/>
<path d="M3400 5355 l0 -85 400 0 400 0 0 85 0 85 -400 0 -400 0 0 -85z"/>
<path d="M3530 4260 l0 -80 280 0 280 0 0 80 0 80 -280 0 -280 0 0 -80z"/>
<path d="M2430 2455 l0 -75 230 0 230 0 0 75 0 75 -230 0 -230 0 0 -75z"/>
<path d="M3250 2455 l0 -75 255 0 256 0 -3 73 -3 72 -252 3 -253 2 0 -75z"/>
<path d="M2430 2085 l0 -75 230 0 230 0 0 75 0 75 -230 0 -230 0 0 -75z"/>
<path d="M3250 2085 l0 -75 255 0 255 0 0 75 0 75 -255 0 -255 0 0 -75z"/>
</g>
</svg>
