<svg id="fce9c2ee-ddb3-4612-a669-68941468fca7" data-name="Layer 1" xmlns="http://www.w3.org/2000/svg" viewBox="0 0 128 128"><rect x="5" y="5" width="118" height="118" rx="15" fill="#fff"/><path d="M108,10a10,10,0,0,1,10,10v88a10,10,0,0,1-10,10H20a10,10,0,0,1-10-10V20A10,10,0,0,1,20,10h88m0-10H20A20,20,0,0,0,0,20v88a20,20,0,0,0,20,20h88a20,20,0,0,0,20-20V20A20,20,0,0,0,108,0Z" fill="#fff"/><rect x="12" y="12" width="103" height="103" rx="15" fill="#ff931e"/><path d="M100,17a10,10,0,0,1,10,10v73a10,10,0,0,1-10,10H27a10,10,0,0,1-10-10V27A10,10,0,0,1,27,17h73m0-10H27A20,20,0,0,0,7,27v73a20,20,0,0,0,20,20h73a20,20,0,0,0,20-20V27A20,20,0,0,0,100,7Z" fill="#ff931e"/><line x1="64" y1="34" x2="64" y2="90" fill="none" stroke="#fff" stroke-linecap="round" stroke-miterlimit="10" stroke-width="15"/><polygon points="64 95 53.08 79 74.92 79 64 95" fill="none" stroke="#fff" stroke-miterlimit="10" stroke-width="10"/></svg>