<svg id="b9c69bb5-2738-4c89-babc-b51819693d2a" data-name="Layer 1" xmlns="http://www.w3.org/2000/svg" viewBox="0 0 128 128"><rect x="5" y="5" width="118" height="118" rx="15" fill="#fff"/><path d="M108,10a10,10,0,0,1,10,10v88a10,10,0,0,1-10,10H20a10,10,0,0,1-10-10V20A10,10,0,0,1,20,10h88m0-10H20A20,20,0,0,0,0,20v88a20,20,0,0,0,20,20h88a20,20,0,0,0,20-20V20A20,20,0,0,0,108,0Z" fill="#fff"/><rect x="12" y="12" width="103" height="103" rx="15" fill="#ff7bac"/><path d="M100,17a10,10,0,0,1,10,10v73a10,10,0,0,1-10,10H27a10,10,0,0,1-10-10V27A10,10,0,0,1,27,17h73m0-10H27A20,20,0,0,0,7,27v73a20,20,0,0,0,20,20h73a20,20,0,0,0,20-20V27A20,20,0,0,0,100,7Z" fill="#ff7bac"/><path d="M42.18,44.15A29.5,29.5,0,1,1,34.5,64" fill="none" stroke="#fff" stroke-linecap="round" stroke-miterlimit="10" stroke-width="10"/><polygon points="40.88 45.55 48.24 44.88 41.99 38.25 40.88 45.55" fill="none" stroke="#fff" stroke-miterlimit="10" stroke-width="10"/></svg>